ply
format ascii 1.0
element vertex 113
property float x
property float y
property float z
end_header
3.012500 -1.739268 0.090035
3.012500 -1.739268 0.401187
3.012500 -1.739268 0.702885
3.012500 -1.739268 1.000000
3.012500 -1.739268 1.297115
3.012500 -1.739268 1.598813
3.012500 -1.739268 1.909965
3.012500 -1.096460 0.163105
3.012500 -1.096460 0.449272
3.012500 -1.096461 0.726744
3.012500 -1.096461 1.000000
3.012500 -1.096461 1.273256
3.012500 -1.096460 1.550728
3.012500 -1.096460 1.836895
3.012500 -0.531185 0.202457
3.012500 -0.531185 0.475168
3.012500 -0.531185 0.739592
3.012500 -0.531185 1.000000
3.012500 -0.531185 1.260408
3.012500 -0.531185 1.524832
3.012500 -0.531185 1.797543
3.012500 0.000000 0.214909
3.012500 0.000000 0.483362
3.012500 0.000000 0.743658
3.012500 0.000000 1.000000
3.012500 0.000000 1.256342
3.012500 0.000000 1.516638
3.012500 0.000000 1.785091
3.012500 0.531185 0.202457
3.012500 0.531185 0.475168
3.012500 0.531185 0.739592
3.012500 0.531185 1.000000
3.012500 0.531185 1.260408
3.012500 0.531185 1.524832
3.012500 0.531185 1.797543
3.012500 1.096460 0.163105
3.012500 1.096460 0.449272
3.012500 1.096461 0.726744
3.012500 1.096461 1.000000
3.012500 1.096461 1.273256
3.012500 1.096460 1.550728
3.012500 1.096460 1.836895
3.012500 1.739268 0.090035
3.012500 1.739268 0.401187
3.012500 1.739268 0.702885
3.012500 1.739268 1.000000
3.012500 1.739268 1.297115
3.012500 1.739268 1.598813
3.012500 1.739268 1.909965
3.590158 3.012500 0.597192
3.590158 3.012500 1.000000
3.590158 3.012500 1.402808
3.590158 3.012500 1.811830
2.527787 3.012500 0.663165
2.527787 3.012500 1.000000
2.527787 3.012500 1.336835
2.527787 3.012500 1.678866
1.739268 3.012500 0.702885
1.739268 3.012500 1.000000
1.739268 3.012500 1.297115
1.739268 3.012500 1.598813
1.739268 3.012500 1.909965
0.907275 -1.571447 0.000000
1.113503 -1.928645 -0.000000
1.414989 -2.450832 -0.000000
1.907275 -3.303498 -0.000000
2.876891 -4.982922 -0.000000
1.166371 -1.390027 -0.000000
1.431492 -1.705986 -0.000000
1.819075 -2.167889 -0.000000
2.451946 -2.922116 -0.000000
3.698460 -4.407654 -0.000000
1.390027 -1.166371 0.000000
1.705986 -1.431493 -0.000000
2.167889 -1.819075 -0.000000
2.922116 -2.451946 -0.000000
4.407653 -3.698460 -0.000000
1.571447 -0.907276 0.000000
1.928645 -1.113504 -0.000000
2.450832 -1.414989 -0.000000
1.705120 -0.620613 0.000000
2.092702 -0.761681 -0.000000
2.659309 -0.967909 0.000000
1.786984 -0.315093 -0.000000
2.193174 -0.386716 -0.000000
2.786984 -0.491420 -0.000000
1.814551 0.000000 0.000000
2.227007 0.000000 -0.000000
2.829978 0.000000 -0.000000
1.786984 0.315093 -0.000000
2.193174 0.386716 -0.000000
2.786984 0.491420 -0.000000
1.705120 0.620613 0.000000
2.092702 0.761681 -0.000000
2.659309 0.967909 0.000000
1.571447 0.907276 0.000000
1.928645 1.113504 -0.000000
2.450832 1.414989 -0.000000
1.390027 1.166371 0.000000
1.705986 1.431493 -0.000000
2.167889 1.819075 -0.000000
2.922116 2.451946 -0.000000
4.407653 3.698460 -0.000000
1.166371 1.390027 -0.000000
1.431492 1.705986 -0.000000
1.819075 2.167889 -0.000000
2.451946 2.922116 -0.000000
3.698460 4.407654 -0.000000
0.907275 1.571447 0.000000
1.113503 1.928645 -0.000000
1.414989 2.450832 -0.000000
1.907275 3.303498 -0.000000
2.876891 4.982922 -0.000000
