# inner-right wall at x=3, y=[1.25,4.25], z=[0,2]
# double-winding closed prism - every face has both windings
v 2.995000 1.250000 0.000000
v 3.005000 1.250000 0.000000
v 3.005000 4.250000 0.000000
v 2.995000 4.250000 0.000000
v 2.995000 1.250000 2.000000
v 3.005000 1.250000 2.000000
v 3.005000 4.250000 2.000000
v 2.995000 4.250000 2.000000
# -Y face (bottom, y=1.25): quad 0,1,5,4
f 1 2 6
f 1 6 5
f 1 6 2
f 1 5 6
# +Y face (top, y=4.25): quad 3,7,6,2
f 4 8 7
f 4 7 3
f 4 7 8
f 4 3 7
# +X face (right, x=3.005): quad 2,6,5,1
f 2 6 5
f 2 5 1
f 2 5 6
f 2 1 5
# -X face (left, x=2.995): quad 0,4,7,3
f 1 5 8
f 1 8 4
f 1 8 5
f 1 4 8
# +Z face (top, z=2.0): quad 5,6,7,4
f 5 6 7
f 5 7 4
f 5 7 6
f 5 4 7
# -Z face (bottom, z=0): quad 0,3,2,1
f 1 4 3
f 1 3 2
f 1 3 4
f 1 2 3
